# AST/ASF file generated using VICON BodyLanguage
# -----------------------------------------------
:version 1.10
:name VICON
:units
  mass 1.0
  length 0.45
  angle deg
:documentation
   .ast/.asf automatically generated from VICON data using
   VICON BodyBuilder and BodyLanguage model FoxedUp or BRILLIANT.MOD
:root
   order TX TY TZ RX RY RZ
   axis XYZ
   position 0 0 0  
   orientation 0 0 0 
:bonedata
  begin
     id 1 
     name lhipjoint
     direction 0.602128 -0.715006 0.355257 
     length 2.21237 
     axis 0 0 0  XYZ
  end
  begin
     id 2 
     name lfemur
     direction 0.34202 -0.939693 0  
     length 6.71649  
     axis 0 0 20  XYZ
    dof rx ry rz
    limits (-160.0 20.0)
           (-70.0 70.0)
           (-60.0 70.0)
  end
  begin
     id 3 
     name ltibia
     direction 0.34202 -0.939693 0   
     length 6.97123   
     axis 0 0 20   XYZ
    dof rx
    limits (-10.0 170.0)
  end
  begin
     id 4 
     name lfoot
     direction 0.0655697 -0.180151 0.981451   
     length 1.80924   
     axis -90 7.62852e-016 20   XYZ
    dof rx rz
    limits (-45.0 90.0)
           (-70.0 20.0)
  end
  begin
     id 5 
     name ltoes
     direction 1.53545e-011 -4.21827e-011 1   
     length 0.916331   
     axis -90 7.62852e-016 20   XYZ
    dof rx
    limits (-90.0 20.0)
  end
  begin
     id 6 
     name rhipjoint
     direction -0.625414 -0.698792 0.347201   
     length 2.2637  
     axis 0 0 0  XYZ 
  end
  begin
     id 7 
     name rfemur
     direction -0.34202 -0.939693 0   
     length 7.07595   
     axis 0 0 -20   XYZ
    dof rx ry rz
    limits (-160.0 20.0)
           (-70.0 70.0)
           (-70.0 60.0)
  end
  begin
     id 8 
     name rtibia
     direction -0.34202 -0.939693 0   
     length 7.22924   
     axis 0 0 -20   XYZ
    dof rx
    limits (-10.0 170.0)
 end
 begin
     id 9 
     name rfoot
     direction -0.0766747 -0.210662 0.974547   
     length 1.98482  
     axis -90 -7.62852e-016 -20   XYZ
    dof rx rz
    limits (-45.0 90.0)
           (-20.0 70.0)
  end
  begin
     id 10 
     name rtoes
     direction -1.53532e-011 -4.21867e-011 1   
     length 0.999842   
     axis -90 -7.62852e-016 -20   XYZ
    dof rx
    limits (-90.0 20.0)
  end
  begin
     id 11 
     name lowerback
     direction -0.0224668 0.997354 -0.0691422   
     length 2.09945   
     axis 0 0 0   XYZ
    dof rx ry rz
    limits (-20.0 45.0)
           (-30.0 30.0)
           (-30.0 30.0)
  end
  begin
     id 12 
     name upperback
     direction 0.0134698 0.998451 -0.0539888   
     length 2.09758   
     axis 0 0 0   XYZ
    dof rx ry rz
    limits (-20.0 45.0)
           (-30.0 30.0)
           (-30.0 30.0)
  end
  begin
     id 13 
     name thorax
     direction 0.0241905 0.99948 -0.0213333   
     length 2.10428   
     axis 0 0 0   XYZ
    dof rx ry rz
    limits (-20.0 45.0)
           (-30.0 30.0)
           (-30.0 30.0)
  end
  begin
     id 14 
     name lowerneck
     direction -0.00866847 0.995978 0.0891737   
     length 1.3959   
     axis 0 0 0   XYZ
    dof rx ry rz
    limits (-20.0 45.0)
           (-30.0 30.0)
           (-30.0 30.0)
  end
  begin
     id 15 
     name upperneck
     direction 0.0680679 0.992203 0.104404   
     length 1.39452   
     axis 0 0 0   XYZ
    dof rx ry rz
    limits (-20.0 45.0)
           (-30.0 30.0)
           (-30.0 30.0)
  end
  begin
     id 16
     name head
     direction 0.0242216 0.999358 0.0264054  
     length 1.40433  
     axis 0 0 0   XYZ
    dof rx ry rz
    limits (-20.0 45.0)
           (-30.0 30.0)
           (-30.0 30.0)
  end
  begin
     id 17 
     name lclavicle
     direction 0.929368 0.362991 -0.0671771  
     length 3.04887  
     axis 0 0 0   XYZ
    dof ry rz
    limits (-20.0 10.0)
           (0.0 20.0)
  end
  begin
     id 18 
     name lhumerus
     direction 1 -4.48967e-011 -7.13741e-028   
     length 4.77195   
     axis -180 -30 -90   XYZ
    dof rx ry rz
    limits (-60.0 90.0)
           (-90.0 90.0)
           (-90.0 90.0)
  end
  begin
     id 19
     name lradius
     direction 1 -4.48977e-011 3.60404e-027   
     length 2.98444   
     axis -180 -30 -90   XYZ
    dof rx
    limits (-10.0 170.0)
  end
  begin
     id 20
     name lwrist
     direction 1 -4.48997e-011 7.54877e-027   
     length 1.49222   
     axis -7.18178e-015 90 90   XYZ
    dof ry
    limits (-180.0 0.0)
 end
  begin
     id 21 
     name lhand
     direction 1 -4.489e-011 1.51105e-026   
     length 0.992285   
     axis -9.63605e-015 90 90   XYZ
    dof rx rz
    limits (-90.0 90.0)
           (-45.0 45.0)
  end
  begin
     id 22 
     name lfingers
     direction 1 -4.48998e-011 3.01948e-026   
     length 0.800006   
     axis -1.92718e-014 90 90   XYZ
    dof rx
    limits (0.0 90.0)
  end
  begin
     id 23
     name lthumb
     direction 0.707107 -6.34881e-011 0.707107   
     length 1.14865   
     axis -90 45 -3.53137e-014   XYZ
    dof rx rz
    limits (-45.0 45.0)
           (-45.0 45.0)
  end
  begin
     id 24 
     name rclavicle
     direction -0.945672 0.324529 0.0196374   
     length 3.4236  
     axis 0 0 0   XYZ 
    dof ry rz
    limits (-10.0 20.0)
           (-20.0 0.0)
  end
  begin
     id 25 
     name rhumerus
     direction -1 -4.4896e-011 1.02757e-029  
     length 4.62052   
     axis -180 30 90   XYZ
    dof rx ry rz
    limits (-90.0 60.0)
           (-90.0 90.0)
           (-90.0 90.0)
  end
  begin
     id 26 
     name rradius
     direction -1 -4.48982e-011 3.85962e-027   
     length 2.95332   
     axis -180 30 90   XYZ
    dof rx
    limits (-10.0 170.0)
  end
  begin
     id 27 
     name rwrist
     direction -1 -4.48961e-011 7.55118e-027   
     length 1.47666   
     axis -7.18178e-015 -90 -90   XYZ
    dof ry
    limits (-180.0 0.0)
  end
  begin
     id 28
     name rhand
     direction -1 -4.48984e-011 1.50994e-026   
     length 0.990956   
     axis -9.63605e-015 -90 -90   XYZ
    dof rx rz
    limits (-90.0 90.0)
           (-45.0 45.0)
  end
  begin
     id 29
     name rfingers
     direction -1 -4.4892e-011 3.02158e-026   
     length 0.798934   
     axis -1.92718e-014 -90 -90   XYZ
    dof rx
    limits (0.0 90.0)
  end
  begin
     id 30
     name rthumb
     direction -0.707107 -6.34916e-011 0.707107   
     length 1.14711   
     axis -90 -45 3.53137e-014   XYZ
    dof rx rz
    limits (-45.0 45.0)
           (-45.0 45.0)
  end
:hierarchy
  begin
    root lhipjoint rhipjoint lowerback
    lhipjoint lfemur
    lfemur ltibia
    ltibia lfoot
    lfoot ltoes
    rhipjoint rfemur
    rfemur rtibia
    rtibia rfoot
    rfoot rtoes
    lowerback upperback
    upperback thorax
    thorax lowerneck lclavicle rclavicle
    lowerneck upperneck
    upperneck head
    lclavicle lhumerus
    lhumerus lradius
    lradius lwrist
    lwrist lhand lthumb
    lhand lfingers
    rclavicle rhumerus
    rhumerus rradius
    rradius rwrist
    rwrist rhand rthumb
    rhand rfingers
  end

#!OML:ASF H:\ManfredObstacles\Project 1\Capture day 1\Session 1\Male.ASF
:FULLY-SPECIFIED
:DEGREES
209
root -1.35 16.2758 7.13094 -187.936 82.7621 -195.578
lowerback -8.23984 -2.05348 -5.9606
upperback 2.50933 -2.0199 -0.633924
thorax 7.47989 -1.23785 2.38301
lowerneck -1.3218 -2.10761 -6.15566
upperneck -2.03375 -2.53105 11.807
head -0.136792 -1.22185 4.53412
rclavicle 1.73937e-015 -1.98785e-015
rhumerus -38.2826 -20.8852 -75.2091
rradius 28.03
rwrist 30.7468
rhand -0.892464 -4.85117
rfingers 7.12502
rthumb 24.7353 -33.272
lclavicle 1.73937e-015 -1.98785e-015
lhumerus -25.2939 18.6395 78.6536
lradius 17.4189
lwrist -33.8311
lhand -10.0926 8.69219
lfingers 7.12502
lthumb 15.8945 38.0599
rfemur -35.7529 -9.18312 19.7571
rtibia 60.6138
rfoot -15.359 2.50039
rtoes 7.61655
lfemur -16.0677 2.09738 -24.1717
ltibia 24.6596
lfoot -5.89259 -19.7321
ltoes 4.9966
210
root -1.19438 16.2703 7.10331 -186.894 82.6522 -194.508
lowerback -8.03328 -2.23351 -5.94679
upperback 2.57027 -2.28591 -0.496923
thorax 7.45551 -1.37237 2.48436
lowerneck -1.33386 -2.1888 -6.3905
upperneck -2.12254 -2.62322 12.164
head -0.142726 -1.26685 4.68227
rclavicle -7.90169e-015 -6.75868e-015
rhumerus -38.5929 -20.6061 -75.1135
rradius 28.5396
rwrist 30.6918
rhand -0.84514 -5.00345
rfingers 7.12502
rthumb 24.7806 -33.418
lclavicle -7.90169e-015 -6.75868e-015
lhumerus -24.5724 17.392 79.3734
lradius 17.6837
lwrist -32.8102
lhand -10.2231 8.70655
lfingers 7.12502
lthumb 15.7688 38.0842
rfemur -36.4892 -9.21467 20.0796
rtibia 57.8061
rfoot -16.0116 1.52675
rtoes 7.99084
lfemur -15.2684 1.74771 -24.0552
ltibia 24.4334
lfoot -6.51752 -19.6615
ltoes 3.92116
211
root -1.03501 16.2697 7.07518 -186.609 82.4788 -194.302
lowerback -7.9381 -2.40408 -5.96128
upperback 2.6 -2.5218 -0.447269
thorax 7.45757 -1.49051 2.51148
lowerneck -1.22712 -2.27833 -6.28009
upperneck -2.33502 -2.72539 12.2753
head -0.212057 -1.32503 4.69966
rclavicle -3.52843e-015 1.03368e-014
rhumerus -39.0021 -20.5256 -75.0222
rradius 29.1466
rwrist 30.7208
rhand -0.720318 -5.14746
rfingers 7.12502
rthumb 24.9003 -33.5455
lclavicle -3.52843e-015 1.03368e-014
lhumerus -23.9068 15.8341 80.0543
lradius 18.0392
lwrist -31.5547
lhand -10.1573 8.64712
lfingers 7.12502
lthumb 15.8321 38.0198
rfemur -37.1703 -9.44637 20.2991
rtibia 54.6715
rfoot -16.4861 0.673331
rtoes 9.36212
lfemur -14.4363 1.35829 -24.0616
ltibia 23.9261
lfoot -6.76646 -19.6422
ltoes 3.73179
212
root -0.869195 16.2779 7.04965 -186.674 82.3597 -194.509
lowerback -7.94894 -2.60358 -6.10568
upperback 2.59895 -2.77806 -0.367945
thorax 7.49939 -1.62566 2.63618
lowerneck -1.22053 -2.33206 -6.0449
upperneck -2.37604 -2.79568 12.2093
head -0.22309 -1.36224 4.63971
rclavicle 1.77415e-014 -5.96354e-015
rhumerus -39.2611 -20.4728 -74.8963
rradius 29.3281
rwrist 30.7981
rhand -0.810416 -5.06637
rfingers 7.12502
rthumb 24.8139 -33.4764
lclavicle 1.77415e-014 -5.96354e-015
lhumerus -23.4132 14.2918 80.7348
lradius 18.4969
lwrist -30.2676
lhand -9.99818 8.6907
lfingers 7.12502
lthumb 15.9854 38.0511
rfemur -37.6824 -9.61992 20.4395
rtibia 51.2715
rfoot -16.8777 0.00903328
rtoes 9.96661
lfemur -13.506 1.22306 -24.1025
ltibia 23.1411
lfoot -6.57847 -19.8711
ltoes 5.21105
213
root -0.698759 16.2874 7.03052 -186.926 82.2913 -194.902
lowerback -7.97005 -2.75891 -6.35385
upperback 2.56255 -2.96773 -0.248772
thorax 7.51306 -1.73299 2.87143
lowerneck -1.18216 -2.40808 -6.00838
upperneck -2.32021 -2.90358 12.2751
head -0.202474 -1.4164 4.65259
rclavicle -3.2551e-014 -1.07344e-014
rhumerus -39.5467 -20.9202 -74.4205
rradius 29.1207
rwrist 31.3427
rhand -0.89845 -4.64731
rfingers 7.12502
rthumb 24.7295 -33.0689
lclavicle -3.2551e-014 -1.07344e-014
lhumerus -22.9822 12.8698 81.4592
lradius 18.9156
lwrist -29.3502
lhand -10.0427 8.77761
lfingers 7.12502
lthumb 15.9425 38.1415
rfemur -38.0192 -9.70512 20.5584
rtibia 47.6448
rfoot -16.9875 -0.304539
rtoes 9.78041
lfemur -12.4216 1.30866 -24.1509
ltibia 22.0723
lfoot -6.20958 -20.0848
ltoes 6.55113
214
root -0.522927 16.2943 7.0177 -187.919 82.302 -196.066
lowerback -8.0335 -2.86744 -6.66797
upperback 2.5006 -3.08173 -0.170528
thorax 7.51965 -1.80412 3.1108
lowerneck -1.1238 -2.51618 -6.31183
upperneck -2.28507 -3.04407 12.7236
head -0.175117 -1.48519 4.83976
rclavicle -3.67752e-015 7.15625e-015
rhumerus -39.9128 -21.6891 -73.7957
rradius 28.8562
rwrist 32.0663
rhand -0.826944 -4.39084
rfingers 7.12502
rthumb 24.7981 -32.803
lclavicle -3.67752e-015 7.15625e-015
lhumerus -22.5152 11.532 82.102
lradius 19.23
lwrist -28.5725
lhand -10.2366 8.84436
lfingers 7.12502
lthumb 15.7558 38.2231
rfemur -38.2754 -9.77358 20.6638
rtibia 43.8424
rfoot -16.8413 -0.178546
rtoes 9.4048
lfemur -11.2464 1.79281 -24.2766
ltibia 20.7978
lfoot -5.74216 -20.4182
ltoes 7.25883
215
root -0.339999 16.3018 7.00335 -189.042 82.2858 -197.275
lowerback -8.05422 -2.96753 -6.82139
upperback 2.4596 -3.19588 -0.197632
thorax 7.50859 -1.8645 3.14997
lowerneck -1.18536 -2.63137 -6.50299
upperneck -2.15291 -3.2006 13.1103
head -0.100068 -1.55615 4.9867
rclavicle 1.55549e-014 -7.95139e-016
rhumerus -40.3474 -22.1126 -73.4042
rradius 28.6395
rwrist 32.3034
rhand -0.851408 -4.36455
rfingers 7.12502
rthumb 24.7746 -32.78
lclavicle 1.55549e-014 -7.95139e-016
lhumerus -22.1819 10.3851 82.5365
lradius 19.6399
lwrist -27.8913
lhand -10.227 8.83209
lfingers 7.12502
lthumb 15.765 38.2101
rfemur -38.2838 -9.8647 20.7086
rtibia 39.937
rfoot -16.5643 0.633706
rtoes 10.3278
lfemur -9.89878 1.91773 -24.3905
ltibia 19.457
lfoot -5.30973 -20.4682
ltoes 8.88568
216
root -0.152277 16.3112 6.98936 -188.423 82.2549 -196.824
lowerback -8.18302 -2.99142 -6.66272
upperback 2.37366 -3.23625 -0.229207
thorax 7.48219 -1.87333 3.01843
lowerneck -1.3481 -2.72949 -6.00799
upperneck -1.86298 -3.36403 12.7424
head 0.0109549 -1.62881 4.78357
rclavicle 2.86747e-014 -1.59028e-015
rhumerus -40.9788 -22.6224 -72.9677
rradius 28.4168
rwrist 32.4505
rhand -0.90238 -4.13308
rfingers 7.12502
rthumb 24.7258 -32.5552
lclavicle 2.86747e-014 -1.59028e-015
lhumerus -21.9804 9.00199 82.9631
lradius 20.1644
lwrist -27.2307
lhand -9.93544 8.68039
lfingers 7.12502
lthumb 16.0458 38.036
rfemur -38.3493 -10.1008 21.0572
rtibia 36.1963
rfoot -16.14 1.9283
rtoes 11.4097
lfemur -8.55907 1.90186 -24.2364
ltibia 17.9711
lfoot -4.83266 -20.4121
ltoes 10.638
217
root 0.0395344 16.3119 6.97447 -187.345 82.1412 -195.925
lowerback -8.38161 -3.06446 -6.54308
upperback 2.30359 -3.34295 -0.131955
thorax 7.53084 -1.92272 3.03044
lowerneck -1.33006 -2.85752 -5.94362
upperneck -1.74133 -3.55497 12.5651
head 0.0565055 -1.7238 4.71487
rclavicle -3.80673e-014 2.78299e-015
rhumerus -41.5414 -23.3296 -72.2805
rradius 28.1121
rwrist 32.8218
rhand -0.870129 -3.74585
rfingers 7.12502
rthumb 24.7567 -32.1637
lclavicle -3.80673e-014 2.78299e-015
lhumerus -21.7637 7.59166 83.5433
lradius 20.6451
lwrist -26.3933
lhand -9.69622 8.4674
lfingers 7.12502
lthumb 16.2762 37.8043
rfemur -38.4806 -10.6379 21.5686
rtibia 32.7238
rfoot -15.7082 3.43951
rtoes 11.7812
lfemur -7.19906 2.06185 -24.0644
ltibia 16.4172
lfoot -4.5805 -20.4781
ltoes 10.4034
